<svg xmlns="http://www.w3.org/2000/svg" viewBox="0 0 383.92 512.33"><defs><style>.cls-1{fill:#fff;}</style></defs><title>Asset 1</title><g id="Layer_2" data-name="Layer 2"><g id="Layer_1-2" data-name="Layer 1"><path class="cls-1" d="M152.12,96.88a4.53,4.53,0,0,1-3.48-3.5c-1.59-5.33-5.85-8-11.37-7.65a21.26,21.26,0,0,0,1.58,42.47,21.39,21.39,0,0,0,20.93-19C160.42,103.23,157.75,98.73,152.12,96.88Zm60.21,27.29c-1.78-4.64-5.68-6.34-10.3-6.59-3.32-.17-6.66,0-10,0v.18c-4,0-8-.47-12,.1-9,1.3-12.39,10.86-6.41,17.7a135.52,135.52,0,0,0,10.16,10.32c5.42,5,10.89,4.91,16.41-.2,3.17-3,6.17-6.08,9.23-9.14C213,133,214.12,128.85,212.33,124.17ZM259.06,97a5.28,5.28,0,0,1-3.87-3.83c-1.77-5.4-5.89-7.91-11.45-7.5A21.31,21.31,0,1,0,266.5,108.5C266.93,102.91,264.45,98.82,259.06,97Zm-66.45,74C109.76,170.74,42,238.48,42.68,321c.64,82,67.5,148.74,148.85,148.55A149.4,149.4,0,0,0,341.18,319.78C341.29,238.37,274.24,171.22,192.61,171Zm-.52,277.14a127.53,127.53,0,0,1-128-126.6C63.22,251,120,192.86,191.55,192.3c69.44.13,127,54.82,128.25,125.93A127.68,127.68,0,0,1,192.09,448.12ZM192.61,171C109.76,170.74,42,238.48,42.68,321c.64,82,67.5,148.74,148.85,148.55A149.4,149.4,0,0,0,341.18,319.78C341.29,238.37,274.24,171.22,192.61,171Zm-.52,277.14a127.53,127.53,0,0,1-128-126.6C63.22,251,120,192.86,191.55,192.3c69.44.13,127,54.82,128.25,125.93A127.68,127.68,0,0,1,192.09,448.12Zm67-351.1a5.28,5.28,0,0,1-3.87-3.83c-1.77-5.4-5.89-7.91-11.45-7.5A21.31,21.31,0,1,0,266.5,108.5C266.93,102.91,264.45,98.82,259.06,97Zm-46.73,27.15c-1.78-4.64-5.68-6.34-10.3-6.59-3.32-.17-6.66,0-10,0v.18c-4,0-8-.47-12,.1-9,1.3-12.39,10.86-6.41,17.7a135.52,135.52,0,0,0,10.16,10.32c5.42,5,10.89,4.91,16.41-.2,3.17-3,6.17-6.08,9.23-9.14C213,133,214.12,128.85,212.33,124.17ZM152.12,96.88a4.53,4.53,0,0,1-3.48-3.5c-1.59-5.33-5.85-8-11.37-7.65a21.26,21.26,0,0,0,1.58,42.47,21.39,21.39,0,0,0,20.93-19C160.42,103.23,157.75,98.73,152.12,96.88Zm0,0a4.53,4.53,0,0,1-3.48-3.5c-1.59-5.33-5.85-8-11.37-7.65a21.26,21.26,0,0,0,1.58,42.47,21.39,21.39,0,0,0,20.93-19C160.42,103.23,157.75,98.73,152.12,96.88Zm60.21,27.29c-1.78-4.64-5.68-6.34-10.3-6.59-3.32-.17-6.66,0-10,0v.18c-4,0-8-.47-12,.1-9,1.3-12.39,10.86-6.41,17.7a135.52,135.52,0,0,0,10.16,10.32c5.42,5,10.89,4.91,16.41-.2,3.17-3,6.17-6.08,9.23-9.14C213,133,214.12,128.85,212.33,124.17ZM259.06,97a5.28,5.28,0,0,1-3.87-3.83c-1.77-5.4-5.89-7.91-11.45-7.5A21.31,21.31,0,1,0,266.5,108.5C266.93,102.91,264.45,98.82,259.06,97Zm-66.45,74C109.76,170.74,42,238.48,42.68,321c.64,82,67.5,148.74,148.85,148.55A149.4,149.4,0,0,0,341.18,319.78C341.29,238.37,274.24,171.22,192.61,171Zm-.52,277.14a127.53,127.53,0,0,1-128-126.6C63.22,251,120,192.86,191.55,192.3c69.44.13,127,54.82,128.25,125.93A127.68,127.68,0,0,1,192.09,448.12ZM192.61,171C109.76,170.74,42,238.48,42.68,321c.64,82,67.5,148.74,148.85,148.55A149.4,149.4,0,0,0,341.18,319.78C341.29,238.37,274.24,171.22,192.61,171Zm-.52,277.14a127.53,127.53,0,0,1-128-126.6C63.22,251,120,192.86,191.55,192.3c69.44.13,127,54.82,128.25,125.93A127.68,127.68,0,0,1,192.09,448.12Zm53.13-319.87A21.5,21.5,0,0,0,266.5,108.5c.43-5.59-2.05-9.68-7.44-11.48a5.28,5.28,0,0,1-3.87-3.83c-1.77-5.4-5.89-7.91-11.45-7.5a21.31,21.31,0,0,0,1.48,42.56Zm-61.39,17.6c5.42,5,10.89,4.91,16.41-.2,3.17-3,6.17-6.08,9.23-9.14,3.51-3.52,4.65-7.66,2.86-12.34s-5.68-6.34-10.3-6.59c-3.32-.17-6.66,0-10,0v.18c-4,0-8-.47-12,.1-9,1.3-12.39,10.86-6.41,17.7A135.52,135.52,0,0,0,183.83,145.85Zm-45-17.65a21.39,21.39,0,0,0,20.93-19c.64-6-2-10.48-7.66-12.33a4.53,4.53,0,0,1-3.48-3.5c-1.59-5.33-5.85-8-11.37-7.65a21.26,21.26,0,0,0,1.58,42.47Zm203.88,42.59c-.81-1.78-1.51-3.6-2.4-5.71,5.57-2,10.87-3.39,15.81-5.62,7.41-3.36,14.75-7,21.81-11,6-3.46,7.52-9.64,4.35-14.94-3-5-8.94-6.46-14.84-3.49-2.37,1.19-4.61,2.67-6.95,3.94A114.87,114.87,0,0,1,330.45,145c-4.3-8.2-8.52-16.24-12.91-24.63,3.72-2.17,6.91-4.26,10.3-6,7.47-3.75,15.11-6.93,23.64-7.47,4.77-.31,8.71-2.42,10.4-7.27,2.66-7.59-3.25-15.11-11.77-13.88a125.77,125.77,0,0,0-24,6.11c-6.65,2.36-12.76,6.19-19.32,9.48-5.62-8.92-11.22-17.57-16.52-26.4a16.55,16.55,0,0,1-2.31-7.37c-.71-13.72-2.54-27.18-7.56-40.07-3.49-9-8.06-17.2-15.64-23.4C257.9-1.42,252.53-1,246.41,5.44a196.29,196.29,0,0,0-26.66,34.23,6.09,6.09,0,0,1-6,3.37c-13.83-.15-27.67-.25-41.5,0-4.34.08-6.67-1.48-9.25-5-8.41-11.36-17.23-22.43-26.3-33.26-5-5.95-10.94-6.46-16.62-1.26a64,64,0,0,0-12,14.49C99.3,33.12,97,50,96,67.05c-.11,2-.09,4.19-1,5.75-5.76,9.54-11.78,18.92-18,28.86-2.4-1.33-4.35-2.61-6.45-3.53-8.37-3.64-16.62-7.72-25.26-10.54-4.88-1.59-10.5-1.69-15.69-1.3-4.93.37-8.07,5-8.11,9.89a10.16,10.16,0,0,0,7.94,10.17,46.58,46.58,0,0,0,5.42.81c11.72,1.47,21.58,7.16,31.61,13.39-4.49,8.45-8.74,16.48-13,24.56-2.1-.51-3.72-.86-5.31-1.3a124,124,0,0,1-30.63-13.18c-6.59-3.93-12.91-2.46-16,3.11S.32,145.08,6.64,148.91a104.19,104.19,0,0,0,12.25,6.71c7.9,3.43,16,6.43,24.44,9.78-.64,1.59-1.28,3.24-2,4.89-5.34,12.92-11,25.7-16,38.78C12.1,244.45,2.64,280.69.41,318.68-1.2,346.14,3.47,372.43,13.16,398,26.94,434.26,48.28,465.86,74,494.71a24.21,24.21,0,0,0,12.48,7.7c25.49,6.53,51.43,9.08,77.65,9.88,7.61.23,13.72-1.44,18.52-7.47,1-1.26,2.48-2.9,3.82-3,5.82-.35,11.93-1.83,16.33,4.24,3.59,5,8.81,6.38,15,6.24,25.73-.57,51.18-3.12,76.29-9,6.72-1.56,12.2-4.42,16.87-9.71,22.31-25.28,41.23-52.75,54.92-83.64,11-24.75,17.81-50.57,18-77.8.17-21.75-2.72-43.21-7.52-64.38C368.72,234.25,357,202.07,342.73,170.79Zm19.21,172.08c-1.47,18.76-6.62,36.64-13.88,53.93-12.84,30.59-31.32,57.54-53.17,82.3a9.52,9.52,0,0,1-4.44,2.9c-23,5.9-46.55,8.16-70.24,8.75a7.12,7.12,0,0,1-5-2.5c-5.25-6.73-12-9.12-20.28-8.07a16.64,16.64,0,0,1-4,0c-9.18-1-17.16.91-23,8.76a5.94,5.94,0,0,1-4.33,1.74c-23.38-.44-46.54-2.8-69.26-8.5a11.23,11.23,0,0,1-5.39-3.2c-27.24-30.94-49.27-64.95-61.13-104.88-7.06-23.75-7.53-47.85-4.4-72.23,5.85-45.63,21.81-88,40.74-129.53,1.21-2.67,2.74-3.22,5.42-2.82a92,92,0,0,0,12.92,1.23,19.26,19.26,0,0,0,8.13-1.6c3.83-1.79,5.86-6.53,5.09-10.53-.86-4.47-3.37-7.64-8-8.49-3.58-.66-7.25-.89-11.84-1.42l8.2-15.48c3.73,3.21,7.06,6.11,10.41,9a68.06,68.06,0,0,0,6.9,5.73,10.27,10.27,0,0,0,12.81-1.71c3.33-3.45,4.23-9.07,1.29-12.84a82.63,82.63,0,0,0-9.45-9.54c-3.3-3-6.81-5.88-10.21-8.83a6.29,6.29,0,0,1-.74-1.27c5.24-8.57,10.22-17.62,16.09-26a33.51,33.51,0,0,0,6.46-19.93A90.91,90.91,0,0,1,123.19,36c1.14-3,2.67-5.95,4.64-10.28,6.44,8.89,12.22,16.74,17.84,24.7,1.82,2.57,3.26,5.42,4.87,8.14a10.86,10.86,0,0,0,9.9,5.69q31.49.06,63,.06c5.09,0,8.1-2.9,10.77-6.9,6.3-9.39,12.89-18.59,19.38-27.84a39.15,39.15,0,0,1,2.62-2.94c1.47,3,2.88,5.48,4,8.11,4.75,11.43,6.07,23.5,6.19,35.71A25.82,25.82,0,0,0,271,84.87c6.21,9.45,12,19.18,18.29,29.29-2.07,1.78-4.07,3.45-6,5.18-4.24,3.75-8.64,7.35-12.65,11.34-4.86,4.84-5.05,11.34-.87,15.62,4,4.12,10.21,4.19,15.31-.1,4.84-4.07,9.47-8.38,14.83-13.15,2.79,5.34,5.34,10.24,8.12,15.55-4.5.58-8.46.8-12.27,1.65-4.59,1-7.87,5.81-7.69,10.45a10.31,10.31,0,0,0,8,9.6,22.24,22.24,0,0,0,5.93.44c4.32-.26,8.64-.64,12.93-1.19,2.31-.3,3.61.25,4.66,2.5,17.56,37.53,31.92,76.14,39.17,117.1C361.87,306.9,363.35,324.84,361.94,342.87ZM192.61,171C109.76,170.74,42,238.48,42.68,321c.64,82,67.5,148.74,148.85,148.55A149.4,149.4,0,0,0,341.18,319.78C341.29,238.37,274.24,171.22,192.61,171Zm-.52,277.14a127.53,127.53,0,0,1-128-126.6C63.22,251,120,192.86,191.55,192.3c69.44.13,127,54.82,128.25,125.93A127.68,127.68,0,0,1,192.09,448.12Zm53.13-319.87A21.5,21.5,0,0,0,266.5,108.5c.43-5.59-2.05-9.68-7.44-11.48a5.28,5.28,0,0,1-3.87-3.83c-1.77-5.4-5.89-7.91-11.45-7.5a21.31,21.31,0,0,0,1.48,42.56Zm-61.39,17.6c5.42,5,10.89,4.91,16.41-.2,3.17-3,6.17-6.08,9.23-9.14,3.51-3.52,4.65-7.66,2.86-12.34s-5.68-6.34-10.3-6.59c-3.32-.17-6.66,0-10,0v.18c-4,0-8-.47-12,.1-9,1.3-12.39,10.86-6.41,17.7A135.52,135.52,0,0,0,183.83,145.85Zm-45-17.65a21.39,21.39,0,0,0,20.93-19c.64-6-2-10.48-7.66-12.33a4.53,4.53,0,0,1-3.48-3.5c-1.59-5.33-5.85-8-11.37-7.65a21.26,21.26,0,0,0,1.58,42.47Zm13.27-31.32a4.53,4.53,0,0,1-3.48-3.5c-1.59-5.33-5.85-8-11.37-7.65a21.26,21.26,0,0,0,1.58,42.47,21.39,21.39,0,0,0,20.93-19C160.42,103.23,157.75,98.73,152.12,96.88Zm60.21,27.29c-1.78-4.64-5.68-6.34-10.3-6.59-3.32-.17-6.66,0-10,0v.18c-4,0-8-.47-12,.1-9,1.3-12.39,10.86-6.41,17.7a135.52,135.52,0,0,0,10.16,10.32c5.42,5,10.89,4.91,16.41-.2,3.17-3,6.17-6.08,9.23-9.14C213,133,214.12,128.85,212.33,124.17ZM259.06,97a5.28,5.28,0,0,1-3.87-3.83c-1.77-5.4-5.89-7.91-11.45-7.5A21.31,21.31,0,1,0,266.5,108.5C266.93,102.91,264.45,98.82,259.06,97Zm-66.45,74C109.76,170.74,42,238.48,42.68,321c.64,82,67.5,148.74,148.85,148.55A149.4,149.4,0,0,0,341.18,319.78C341.29,238.37,274.24,171.22,192.61,171Zm-.52,277.14a127.53,127.53,0,0,1-128-126.6C63.22,251,120,192.86,191.55,192.3c69.44.13,127,54.82,128.25,125.93A127.68,127.68,0,0,1,192.09,448.12ZM192.61,171C109.76,170.74,42,238.48,42.68,321c.64,82,67.5,148.74,148.85,148.55A149.4,149.4,0,0,0,341.18,319.78C341.29,238.37,274.24,171.22,192.61,171Zm-.52,277.14a127.53,127.53,0,0,1-128-126.6C63.22,251,120,192.86,191.55,192.3c69.44.13,127,54.82,128.25,125.93A127.68,127.68,0,0,1,192.09,448.12Zm67-351.1a5.28,5.28,0,0,1-3.87-3.83c-1.77-5.4-5.89-7.91-11.45-7.5A21.31,21.31,0,1,0,266.5,108.5C266.93,102.91,264.45,98.82,259.06,97Zm-46.73,27.15c-1.78-4.64-5.68-6.34-10.3-6.59-3.32-.17-6.66,0-10,0v.18c-4,0-8-.47-12,.1-9,1.3-12.39,10.86-6.41,17.7a135.52,135.52,0,0,0,10.16,10.32c5.42,5,10.89,4.91,16.41-.2,3.17-3,6.17-6.08,9.23-9.14C213,133,214.12,128.85,212.33,124.17ZM152.12,96.88a4.53,4.53,0,0,1-3.48-3.5c-1.59-5.33-5.85-8-11.37-7.65a21.26,21.26,0,0,0,1.58,42.47,21.39,21.39,0,0,0,20.93-19C160.42,103.23,157.75,98.73,152.12,96.88Zm0,0a4.53,4.53,0,0,1-3.48-3.5c-1.59-5.33-5.85-8-11.37-7.65a21.26,21.26,0,0,0,1.58,42.47,21.39,21.39,0,0,0,20.93-19C160.42,103.23,157.75,98.73,152.12,96.88Zm60.21,27.29c-1.78-4.64-5.68-6.34-10.3-6.59-3.32-.17-6.66,0-10,0v.18c-4,0-8-.47-12,.1-9,1.3-12.39,10.86-6.41,17.7a135.52,135.52,0,0,0,10.16,10.32c5.42,5,10.89,4.91,16.41-.2,3.17-3,6.17-6.08,9.23-9.14C213,133,214.12,128.85,212.33,124.17ZM259.06,97a5.28,5.28,0,0,1-3.87-3.83c-1.77-5.4-5.89-7.91-11.45-7.5A21.31,21.31,0,1,0,266.5,108.5C266.93,102.91,264.45,98.82,259.06,97Zm-66.45,74C109.76,170.74,42,238.48,42.68,321c.64,82,67.5,148.74,148.85,148.55A149.4,149.4,0,0,0,341.18,319.78C341.29,238.37,274.24,171.22,192.61,171Zm-.52,277.14a127.53,127.53,0,0,1-128-126.6C63.22,251,120,192.86,191.55,192.3c69.44.13,127,54.82,128.25,125.93A127.68,127.68,0,0,1,192.09,448.12ZM192.61,171C109.76,170.74,42,238.48,42.68,321c.64,82,67.5,148.74,148.85,148.55A149.4,149.4,0,0,0,341.18,319.78C341.29,238.37,274.24,171.22,192.61,171Zm-.52,277.14a127.53,127.53,0,0,1-128-126.6C63.22,251,120,192.86,191.55,192.3c69.44.13,127,54.82,128.25,125.93A127.68,127.68,0,0,1,192.09,448.12Zm67-351.1a5.28,5.28,0,0,1-3.87-3.83c-1.77-5.4-5.89-7.91-11.45-7.5A21.31,21.31,0,1,0,266.5,108.5C266.93,102.91,264.45,98.82,259.06,97Zm-46.73,27.15c-1.78-4.64-5.68-6.34-10.3-6.59-3.32-.17-6.66,0-10,0v.18c-4,0-8-.47-12,.1-9,1.3-12.39,10.86-6.41,17.7a135.52,135.52,0,0,0,10.16,10.32c5.42,5,10.89,4.91,16.41-.2,3.17-3,6.17-6.08,9.23-9.14C213,133,214.12,128.85,212.33,124.17ZM152.12,96.88a4.53,4.53,0,0,1-3.48-3.5c-1.59-5.33-5.85-8-11.37-7.65a21.26,21.26,0,0,0,1.58,42.47,21.39,21.39,0,0,0,20.93-19C160.42,103.23,157.75,98.73,152.12,96.88Z"/><path d="M342.73,170.79c-.81-1.78-1.51-3.6-2.4-5.71,5.57-2,10.87-3.39,15.81-5.62,7.41-3.36,14.75-7,21.81-11,6-3.46,7.52-9.64,4.35-14.94-3-5-8.94-6.46-14.84-3.49-2.37,1.19-4.61,2.67-6.95,3.94A114.87,114.87,0,0,1,330.45,145c-4.3-8.2-8.52-16.24-12.91-24.63,3.72-2.17,6.91-4.26,10.3-6,7.47-3.75,15.11-6.93,23.64-7.47,4.77-.31,8.71-2.42,10.4-7.27,2.66-7.59-3.25-15.11-11.77-13.88a125.77,125.77,0,0,0-24,6.11c-6.65,2.36-12.76,6.19-19.32,9.48-5.62-8.92-11.22-17.57-16.52-26.4a16.55,16.55,0,0,1-2.31-7.37c-.71-13.72-2.54-27.18-7.56-40.07-3.49-9-8.06-17.2-15.64-23.4C257.9-1.42,252.53-1,246.41,5.44a196.29,196.29,0,0,0-26.66,34.23,6.09,6.09,0,0,1-6,3.37c-13.83-.15-27.67-.25-41.5,0-4.34.08-6.67-1.48-9.25-5-8.41-11.36-17.23-22.43-26.3-33.26-5-5.95-10.94-6.46-16.62-1.26a64,64,0,0,0-12,14.49C99.3,33.12,97,50,96,67.05c-.11,2-.09,4.19-1,5.75-5.76,9.54-11.78,18.92-18,28.86-2.4-1.33-4.35-2.61-6.45-3.53-8.37-3.64-16.62-7.72-25.26-10.54-4.88-1.59-10.5-1.69-15.69-1.3-4.93.37-8.07,5-8.11,9.89a10.16,10.16,0,0,0,7.94,10.17,46.58,46.58,0,0,0,5.42.81c11.72,1.47,21.58,7.16,31.61,13.39-4.49,8.45-8.74,16.48-13,24.56-2.1-.51-3.72-.86-5.31-1.3a124,124,0,0,1-30.63-13.18c-6.59-3.93-12.91-2.46-16,3.11S.32,145.08,6.64,148.91a104.19,104.19,0,0,0,12.25,6.71c7.9,3.43,16,6.43,24.44,9.78-.64,1.59-1.28,3.24-2,4.89-5.34,12.92-11,25.7-16,38.78C12.1,244.45,2.64,280.69.41,318.68-1.2,346.14,3.47,372.43,13.16,398,26.94,434.26,48.28,465.86,74,494.71a24.21,24.21,0,0,0,12.48,7.7c25.49,6.53,51.43,9.08,77.65,9.88,7.61.23,13.72-1.44,18.52-7.47,1-1.26,2.48-2.9,3.82-3,5.82-.35,11.93-1.83,16.33,4.24,3.59,5,8.81,6.38,15,6.24,25.73-.57,51.18-3.12,76.29-9,6.72-1.56,12.2-4.42,16.87-9.71,22.31-25.28,41.23-52.75,54.92-83.64,11-24.75,17.81-50.57,18-77.8.17-21.75-2.72-43.21-7.52-64.38C368.72,234.25,357,202.07,342.73,170.79Zm19.21,172.08c-1.47,18.76-6.62,36.64-13.88,53.93-12.84,30.59-31.32,57.54-53.17,82.3a9.52,9.52,0,0,1-4.44,2.9c-23,5.9-46.55,8.16-70.24,8.75a7.12,7.12,0,0,1-5-2.5c-5.25-6.73-12-9.12-20.28-8.07a16.64,16.64,0,0,1-4,0c-9.18-1-17.16.91-23,8.76a5.94,5.94,0,0,1-4.33,1.74c-23.38-.44-46.54-2.8-69.26-8.5a11.23,11.23,0,0,1-5.39-3.2c-27.24-30.94-49.27-64.95-61.13-104.88-7.06-23.75-7.53-47.85-4.4-72.23,5.85-45.63,21.81-88,40.74-129.53,1.21-2.67,2.74-3.22,5.42-2.82a92,92,0,0,0,12.92,1.23,19.26,19.26,0,0,0,8.13-1.6c3.83-1.79,5.86-6.53,5.09-10.53-.86-4.47-3.37-7.64-8-8.49-3.58-.66-7.25-.89-11.84-1.42l8.2-15.48c3.73,3.21,7.06,6.11,10.41,9a68.06,68.06,0,0,0,6.9,5.73,10.27,10.27,0,0,0,12.81-1.71c3.33-3.45,4.23-9.07,1.29-12.84a82.63,82.63,0,0,0-9.45-9.54c-3.3-3-6.81-5.88-10.21-8.83a6.29,6.29,0,0,1-.74-1.27c5.24-8.57,10.22-17.62,16.09-26a33.51,33.51,0,0,0,6.46-19.93A90.91,90.91,0,0,1,123.19,36c1.14-3,2.67-5.95,4.64-10.28,6.44,8.89,12.22,16.74,17.84,24.7,1.82,2.57,3.26,5.42,4.87,8.14a10.86,10.86,0,0,0,9.9,5.69q31.49.06,63,.06c5.09,0,8.1-2.9,10.77-6.9,6.3-9.39,12.89-18.59,19.38-27.84a39.15,39.15,0,0,1,2.62-2.94c1.47,3,2.88,5.48,4,8.11,4.75,11.43,6.07,23.5,6.19,35.71A25.82,25.82,0,0,0,271,84.87c6.21,9.45,12,19.18,18.29,29.29-2.07,1.78-4.07,3.45-6,5.18-4.24,3.75-8.64,7.35-12.65,11.34-4.86,4.84-5.05,11.34-.87,15.62,4,4.12,10.21,4.19,15.31-.1,4.84-4.07,9.47-8.38,14.83-13.15,2.79,5.34,5.34,10.24,8.12,15.55-4.5.58-8.46.8-12.27,1.65-4.59,1-7.87,5.81-7.69,10.45a10.31,10.31,0,0,0,8,9.6,22.24,22.24,0,0,0,5.93.44c4.32-.26,8.64-.64,12.93-1.19,2.31-.3,3.61.25,4.66,2.5,17.56,37.53,31.92,76.14,39.17,117.1C361.87,306.9,363.35,324.84,361.94,342.87Z"/><path d="M192.61,171C109.76,170.74,42,238.48,42.68,321c.64,82,67.5,148.74,148.85,148.55A149.4,149.4,0,0,0,341.18,319.78C341.29,238.37,274.24,171.22,192.61,171Zm-.52,277.14a127.53,127.53,0,0,1-128-126.6C63.22,251,120,192.86,191.55,192.3c69.44.13,127,54.82,128.25,125.93A127.68,127.68,0,0,1,192.09,448.12Z"/><path d="M266.5,108.5a21.3,21.3,0,1,1-22.76-22.81c5.56-.41,9.68,2.1,11.45,7.5A5.28,5.28,0,0,0,259.06,97C264.45,98.82,266.93,102.91,266.5,108.5Z"/><path d="M159.78,109.21a21.29,21.29,0,0,1-42.45-2,21.17,21.17,0,0,1,19.94-21.48c5.52-.32,9.78,2.32,11.37,7.65a4.53,4.53,0,0,0,3.48,3.5C157.75,98.73,160.42,103.23,159.78,109.21Z"/><path d="M209.47,136.51c-3.06,3.06-6.06,6.19-9.23,9.14-5.52,5.11-11,5.22-16.41.2a135.52,135.52,0,0,1-10.16-10.32c-6-6.84-2.56-16.4,6.41-17.7,3.91-.57,8-.1,12-.1v-.18c3.33,0,6.67-.14,10,0,4.62.25,8.52,2,10.3,6.59S213,133,209.47,136.51Z"/><path d="M249.2,376.43a8,8,0,0,1-11,2.66C208,360.66,170.09,356.5,125.39,366.71a8,8,0,0,1-3.56-15.6c48.91-11.18,90.87-6.37,124.72,14.31A8,8,0,0,1,249.2,376.43Zm15.72-35a10,10,0,0,1-13.78,3.3c-34.5-21.21-87.12-27.36-127.95-15a10,10,0,1,1-5.82-19.16C164,296.49,222,303.34,261.62,327.7A10,10,0,0,1,264.92,341.46Zm1.35-36.4c-41.39-24.59-109.67-26.85-149.18-14.85a12,12,0,1,1-7-23c45.36-13.77,120.76-11.11,168.41,17.18a12,12,0,1,1-12.26,20.66Z"/></g></g></svg>